<svg width="44" height="44" viewBox="0 0 44 44" fill="none" xmlns="http://www.w3.org/2000/svg">
<path d="M7.33331 34.184V14.7662C7.33331 9.53381 7.33331 6.91765 8.94423 5.29218C10.5551 3.66669 13.1479 3.66669 18.3333 3.66669H25.6666C30.852 3.66669 33.4447 3.66669 35.0557 5.29218C36.6666 6.91765 36.6666 9.53381 36.6666 14.7662V34.184C36.6666 36.9554 36.6666 38.3411 35.8196 38.8865C34.4357 39.778 32.2962 37.9086 31.22 37.2301C30.3308 36.6693 29.8864 36.3889 29.3929 36.3728C28.8598 36.3552 28.4073 36.6242 27.4466 37.2301L23.9433 39.4394C22.9982 40.0353 22.5258 40.3334 22 40.3334C21.4742 40.3334 21.0017 40.0353 20.0566 39.4394L16.5534 37.2301C15.6643 36.6693 15.2197 36.3889 14.7263 36.3728C14.1931 36.3552 13.7407 36.6242 12.7799 37.2301C11.7039 37.9086 9.56424 39.778 8.18022 38.8865C7.33331 38.3411 7.33331 36.9554 7.33331 34.184Z" stroke="#2560D2" stroke-width="3" stroke-linecap="round" stroke-linejoin="round"/>
<path d="M20.1667 20.1667H14.6667" stroke="#2560D2" stroke-width="3" stroke-linecap="round" stroke-linejoin="round"/>
<path d="M25.6667 12.8333H14.6667" stroke="#2560D2" stroke-width="3" stroke-linecap="round" stroke-linejoin="round"/>
</svg>
