<svg width="44" height="44" viewBox="0 0 44 44" fill="none" xmlns="http://www.w3.org/2000/svg">
<path d="M3.66669 14.6667C3.66669 17.1266 18.5073 23.8333 21.9745 23.8333C25.4416 23.8333 40.2824 17.1266 40.2824 14.6667C40.2824 12.2067 25.4416 5.5 21.9745 5.5C18.5073 5.5 3.66669 12.2067 3.66669 14.6667Z" stroke="#2560D2" stroke-width="3" stroke-linecap="round" stroke-linejoin="round"/>
<path d="M10.9893 20.1666L11.4386 30.4881C11.4476 30.6947 11.47 30.9017 11.5299 31.0997C11.715 31.7117 12.0561 32.2677 12.5767 32.6414C16.6493 35.5639 27.2985 35.5639 31.3711 32.6414C31.8919 32.2677 32.2329 31.7117 32.4181 31.0997C32.4779 30.9017 32.5002 30.6947 32.5094 30.4881L32.9586 20.1666" stroke="#2560D2" stroke-width="3" stroke-linecap="round" stroke-linejoin="round"/>
<path d="M37.5346 17.4166V30.25M37.5346 30.25C36.0826 32.9015 35.4406 34.3222 34.7884 36.6666C34.6469 37.5008 34.7593 37.9212 35.3342 38.2944C35.5678 38.4461 35.8485 38.5 36.1268 38.5H38.9142C39.2106 38.5 39.5096 38.4382 39.7537 38.2699C40.2881 37.9014 40.4256 37.4971 40.2807 36.6666C39.7091 34.4897 38.9809 33.0014 37.5346 30.25Z" stroke="#2560D2" stroke-width="3" stroke-linecap="round" stroke-linejoin="round"/>
</svg>
