<svg width="44" height="44" viewBox="0 0 44 44" fill="none" xmlns="http://www.w3.org/2000/svg">
<path d="M27.4642 12.8618C27.4642 12.8618 28.3809 13.7785 29.2976 15.6118C29.2976 15.6118 32.2093 11.0285 34.7976 10.1118" stroke="#2560D2" stroke-width="3" stroke-linecap="round" stroke-linejoin="round"/>
<path d="M18.324 3.70578C13.7434 3.51185 10.2046 4.03952 10.2046 4.03952C7.97008 4.1993 3.68776 5.45205 3.68779 12.7683C3.68783 20.0224 3.64042 28.9654 3.68779 32.5305C3.68779 34.7087 5.03643 39.7894 9.70439 40.0616C15.3783 40.3927 25.5984 40.4631 30.2876 40.0616C31.5428 39.9909 35.7219 39.0054 36.2508 34.4586C36.7988 29.7482 36.6897 26.4746 36.6897 25.6954" stroke="#2560D2" stroke-width="3" stroke-linecap="round" stroke-linejoin="round"/>
<path d="M40.3332 12.8619C40.3332 17.9245 36.2252 22.0286 31.1577 22.0286C26.0902 22.0286 21.9822 17.9245 21.9822 12.8619C21.9822 7.79925 26.0902 3.69519 31.1577 3.69519C36.2252 3.69519 40.3332 7.79925 40.3332 12.8619Z" stroke="#2560D2" stroke-width="3" stroke-linecap="round"/>
<path d="M12.7976 23.8619H20.1309" stroke="#2560D2" stroke-width="3" stroke-linecap="round"/>
<path d="M12.7976 31.1953H27.4642" stroke="#2560D2" stroke-width="3" stroke-linecap="round"/>
</svg>
