<svg width="44" height="44" viewBox="0 0 44 44" fill="none" xmlns="http://www.w3.org/2000/svg">
<path d="M25.6666 40.3333V14.6666C25.6666 9.48117 25.6666 6.88845 24.0557 5.27754C22.4447 3.66663 19.852 3.66663 14.6666 3.66663C9.48117 3.66663 6.88845 3.66663 5.27754 5.27754C3.66663 6.88845 3.66663 9.48117 3.66663 14.6666V29.3333C3.66663 34.5187 3.66663 37.1114 5.27754 38.7223C6.88845 40.3333 9.48117 40.3333 14.6666 40.3333H25.6666Z" stroke="#2560D2" stroke-width="3" stroke-linecap="round"/>
<path d="M11.9167 20.1667H10.0834M19.25 20.1667H17.4167M11.9167 12.8334H10.0834M11.9167 27.5H10.0834M19.25 12.8334H17.4167M19.25 27.5H17.4167" stroke="#2560D2" stroke-width="3" stroke-linecap="round"/>
<path d="M33.9167 27.5H32.0834M33.9167 20.1666H32.0834" stroke="#2560D2" stroke-width="3" stroke-linecap="round"/>
<path d="M33 14.6666H25.6666V40.3333H33C36.4569 40.3333 38.1854 40.3333 39.2593 39.2593C40.3333 38.1854 40.3333 36.4569 40.3333 33V22C40.3333 18.543 40.3333 16.8145 39.2593 15.7406C38.1854 14.6666 36.4569 14.6666 33 14.6666Z" stroke="#2560D2" stroke-width="3" stroke-linecap="round"/>
</svg>
