<svg width="300" height="52" viewBox="0 0 300 52" fill="none" xmlns="http://www.w3.org/2000/svg">
<g clip-path="url(#clip0_5_896)">
<path d="M37.7221 51.7834L30.0242 43.7667C29.6943 43.4417 29.1444 43.4417 28.8145 43.7667L21.1166 51.7834C20.7867 52.1084 20.2368 52.1084 19.9069 51.7834L0.11218 31.2C-0.217732 30.875 -0.217732 30.3334 0.11218 30.1167L28.7046 0.325049C29.0345 4.88311e-05 29.5843 4.88311e-05 29.9142 0.325049L58.5066 30.1167C58.8365 30.4417 58.8365 30.9834 58.5066 31.2L38.7119 51.7834C38.6019 52.1084 38.0521 52.1084 37.7221 51.7834ZM33.1034 40.4084L37.7221 45.175C38.0521 45.5 38.6019 45.5 38.9318 45.175L52.3483 31.2C52.6782 30.875 52.6782 30.3334 52.3483 30.1167L30.0242 6.82505C29.6943 6.50005 29.1444 6.50005 28.8145 6.82505L6.49048 30.0084C6.16057 30.3334 6.16057 30.875 6.49048 31.0917L19.9069 45.0667C20.2368 45.3917 20.7867 45.3917 21.1166 45.0667L25.7353 40.3C26.0653 39.975 26.0653 39.4334 25.7353 39.2167L17.9274 31.0917C17.5975 30.7667 17.5975 30.225 17.9274 30.0084L28.8145 18.6334C29.1444 18.3084 29.6943 18.3084 30.0242 18.6334L40.9113 30.0084C41.2412 30.3334 41.2412 30.875 40.9113 31.0917L33.1034 39.2167C32.8834 39.5417 32.8834 40.0834 33.1034 40.4084ZM24.3057 31.2L28.9245 35.9667C29.2544 36.2917 29.8043 36.2917 30.1342 35.9667L34.7529 31.2C35.0829 30.875 35.0829 30.3334 34.7529 30.1167L30.1342 25.35C29.8043 25.025 29.2544 25.025 28.9245 25.35L24.3057 30.1167C23.9758 30.3334 23.9758 30.875 24.3057 31.2Z" fill="#63D759"/>
<path d="M84.0169 37.9167C81.7076 37.9167 79.7281 37.375 78.0785 36.4C76.429 35.425 75.3293 34.0167 74.6694 32.2834L78.6284 30.0084C79.5081 32.3917 81.3776 33.475 84.0169 33.475C85.3366 33.475 86.3263 33.2584 86.8762 32.825C87.536 32.3917 87.7559 31.7417 87.7559 31.0917C87.7559 30.3334 87.426 29.6834 86.6562 29.25C85.8864 28.8167 84.5668 28.2751 82.6973 27.8417C81.5976 27.5167 80.7178 27.1917 80.058 26.975C79.2882 26.65 78.6284 26.2167 77.8586 25.7834C77.0888 25.2417 76.5389 24.5917 76.209 23.8334C75.8791 23.075 75.6592 22.1 75.6592 21.125C75.6592 19.0667 76.429 17.4417 77.9686 16.1417C79.5081 14.95 81.2677 14.3 83.4671 14.3C85.3366 14.3 87.0961 14.7334 88.5257 15.7084C89.9554 16.575 91.165 17.875 91.9348 19.5L87.9759 21.6667C86.9861 19.7167 85.5565 18.7417 83.4671 18.7417C82.4773 18.7417 81.7076 18.9584 81.1577 19.3917C80.6079 19.825 80.2779 20.3667 80.2779 21.0167C80.2779 21.775 80.6079 22.3167 81.1577 22.75C81.8175 23.1834 82.9172 23.725 84.6768 24.1584C85.4466 24.375 85.9964 24.5917 86.3263 24.7C86.6562 24.8084 87.2061 25.025 87.8659 25.2417C88.5257 25.4584 88.9656 25.675 89.4055 26C89.7354 26.2167 90.1753 26.5417 90.6152 26.8667C91.0551 27.1917 91.385 27.625 91.6049 28.0584C91.8249 28.4917 92.0448 28.9251 92.2647 29.4667C92.4847 30.0084 92.4847 30.6584 92.4847 31.3084C92.4847 33.475 91.7149 35.1 90.0653 36.4C88.6357 37.2667 86.5463 37.9167 84.0169 37.9167Z" fill="#0E0E0E"/>
<path d="M109.31 35.4251C107.551 37.1584 105.461 37.9167 102.932 37.9167C100.403 37.9167 98.3133 37.0501 96.5537 35.4251C94.7942 33.6917 93.9144 31.6334 93.9144 29.1417C93.9144 26.6501 94.7942 24.5917 96.5537 22.8584C98.3133 21.1251 100.403 20.3667 102.932 20.3667C105.461 20.3667 107.551 21.2334 109.31 22.8584C111.07 24.5917 111.95 26.6501 111.95 29.1417C111.95 31.6334 111.07 33.6917 109.31 35.4251ZM99.7429 32.5001C100.623 33.3667 101.722 33.8001 103.042 33.8001C104.362 33.8001 105.461 33.3667 106.341 32.5001C107.221 31.6334 107.661 30.5501 107.661 29.2501C107.661 27.9501 107.221 26.8667 106.341 26.0001C105.461 25.1334 104.362 24.7001 103.042 24.7001C101.722 24.7001 100.623 25.1334 99.7429 26.0001C98.8631 26.8667 98.4232 27.9501 98.4232 29.2501C98.4232 30.5501 98.8631 31.6334 99.7429 32.5001Z" fill="#0E0E0E"/>
<path d="M122.617 18.2001C120.308 17.9834 119.208 18.9584 119.208 21.0167V21.2334H122.617V25.3501H119.208V37.9167H115.029V25.3501H112.72V21.2334H115.029V21.0167C115.029 18.6334 115.689 16.9001 116.898 15.6001C118.218 14.4084 120.088 13.8667 122.617 13.9751V18.2001Z" fill="#0E0E0E"/>
<path d="M134.824 25.2417H131.415V32.1751C131.415 32.7167 131.525 33.1501 131.855 33.4751C132.075 33.6917 132.514 33.9084 133.064 33.9084C133.614 33.9084 134.164 33.9084 134.934 33.9084V37.8084C132.185 38.1334 130.315 37.9167 129.215 36.9417C128.116 36.0751 127.566 34.4501 127.566 32.1751V25.2417H124.927V21.1251H127.566V17.7667L131.525 16.4667V21.1251H134.934V25.2417H134.824Z" fill="#0E0E0E"/>
<path d="M160.777 14.0833H165.616V37.9167H160.777V28.0583H151.649V37.9167H146.811V14.0833H151.649V23.5083H160.777V14.0833Z" fill="#0E0E0E"/>
<path d="M182.991 35.4251C181.231 37.1584 179.142 37.9167 176.612 37.9167C174.083 37.9167 171.993 37.0501 170.234 35.4251C168.474 33.6917 167.595 31.6334 167.595 29.1417C167.595 26.6501 168.474 24.5917 170.234 22.8584C171.993 21.1251 174.083 20.3667 176.612 20.3667C179.142 20.3667 181.231 21.2334 182.991 22.8584C184.75 24.5917 185.63 26.6501 185.63 29.1417C185.63 31.6334 184.75 33.6917 182.991 35.4251ZM173.313 32.5001C174.193 33.3667 175.293 33.8001 176.612 33.8001C177.932 33.8001 179.032 33.3667 179.911 32.5001C180.791 31.6334 181.231 30.5501 181.231 29.2501C181.231 27.9501 180.791 26.8667 179.911 26.0001C179.032 25.1334 177.932 24.7001 176.612 24.7001C175.293 24.7001 174.193 25.1334 173.313 26.0001C172.433 26.8667 171.993 27.9501 171.993 29.2501C172.103 30.5501 172.433 31.6334 173.313 32.5001Z" fill="#0E0E0E"/>
<path d="M206.414 20.3667C208.394 20.3667 209.934 21.0167 211.033 22.3167C212.243 23.6167 212.793 25.3501 212.793 27.4084V37.9167H208.394V27.7334C208.394 26.7584 208.174 25.8917 207.624 25.3501C207.074 24.8084 206.414 24.4834 205.535 24.4834C204.545 24.4834 203.775 24.8084 203.225 25.4584C202.675 26.1084 202.346 27.0834 202.346 28.2751V37.9167H197.947V27.7334C197.947 26.7584 197.727 25.8917 197.177 25.3501C196.627 24.8084 195.967 24.4834 195.087 24.4834C194.098 24.4834 193.328 24.8084 192.778 25.4584C192.228 26.1084 191.898 27.0834 191.898 28.2751V37.9167H187.5V20.9084H191.898V22.7501C192.888 21.2334 194.428 20.4751 196.627 20.4751C198.717 20.4751 200.256 21.3417 201.246 22.9667C202.456 21.2334 204.105 20.3667 206.414 20.3667Z" fill="#0E0E0E"/>
<path d="M219.391 30.9834C219.941 33.0418 221.48 34.1251 224.12 34.1251C225.769 34.1251 226.979 33.5834 227.859 32.5001L231.268 34.4501C229.618 36.8334 227.199 38.0251 224.01 38.0251C221.26 38.0251 219.061 37.1584 217.411 35.5334C215.762 33.9084 214.882 31.7418 214.882 29.2501C214.882 26.7584 215.652 24.7001 217.301 22.9668C218.951 21.3418 221.04 20.4751 223.57 20.4751C225.989 20.4751 227.969 21.3418 229.618 22.9668C231.158 24.7001 232.038 26.7584 232.038 29.2501C232.038 29.7918 231.928 30.4418 231.818 30.9834H219.391ZM219.281 27.6251H227.749C227.529 26.5418 226.979 25.6751 226.209 25.1334C225.439 24.5918 224.56 24.2668 223.57 24.2668C222.47 24.2668 221.48 24.5918 220.711 25.1334C220.051 25.6751 219.501 26.5418 219.281 27.6251Z" fill="#0E0E0E"/>
<path d="M242.374 37.9167C239.845 37.9167 237.756 37.0501 235.996 35.4251C234.346 33.6917 233.467 31.6334 233.467 29.1417C233.467 26.6501 234.346 24.5917 235.996 22.8584C237.646 21.1251 239.845 20.3667 242.374 20.3667C244.024 20.3667 245.453 20.8001 246.883 21.5584C248.203 22.3167 249.192 23.4001 249.962 24.7001L246.223 26.8667C245.893 26.2167 245.343 25.6751 244.684 25.2417C244.024 24.8084 243.254 24.5917 242.374 24.5917C241.055 24.5917 239.955 25.0251 239.185 25.8917C238.305 26.7584 237.865 27.8417 237.865 29.1417C237.865 30.4417 238.305 31.5251 239.185 32.3917C240.065 33.2584 241.055 33.6917 242.374 33.6917C243.254 33.6917 244.024 33.4751 244.684 33.1501C245.343 32.7167 245.893 32.1751 246.223 31.5251L249.962 33.6917C249.192 34.9917 248.203 36.0751 246.883 36.8334C245.453 37.5917 243.914 37.9167 242.374 37.9167Z" fill="#0E0E0E"/>
<path d="M264.149 20.9084H268.437V37.4834H264.149V35.5334C262.829 37.1584 261.069 37.9167 258.65 37.9167C256.451 37.9167 254.471 37.0501 252.932 35.4251C251.392 33.6917 250.512 31.6334 250.512 29.1417C250.512 26.6501 251.282 24.5917 252.932 22.8584C254.471 21.1251 256.451 20.3667 258.65 20.3667C260.959 20.3667 262.829 21.1251 264.149 22.7501V20.9084ZM256.231 32.5001C257.11 33.3667 258.21 33.8001 259.53 33.8001C260.849 33.8001 261.949 33.3667 262.829 32.5001C263.709 31.6334 264.149 30.5501 264.149 29.1417C264.149 27.7334 263.709 26.6501 262.829 25.7834C261.949 24.9167 260.849 24.4834 259.53 24.4834C258.21 24.4834 257.11 24.9167 256.231 25.7834C255.351 26.6501 254.911 27.7334 254.911 29.1417C254.911 30.5501 255.351 31.6334 256.231 32.5001Z" fill="#0E0E0E"/>
<path d="M287.243 30.9834C287.793 33.0418 289.333 34.1251 291.972 34.1251C293.622 34.1251 294.831 33.5834 295.711 32.5001L299.12 34.4501C297.471 36.8334 295.051 38.0251 291.862 38.0251C289.113 38.0251 286.913 37.1584 285.264 35.5334C283.614 33.9084 282.735 31.7418 282.735 29.2501C282.735 26.7584 283.504 24.7001 285.154 22.9668C286.804 21.3418 288.893 20.4751 291.422 20.4751C293.842 20.4751 295.821 21.3418 297.471 22.9668C299.01 24.7001 299.89 26.7584 299.89 29.2501C299.89 29.7918 299.78 30.4418 299.67 30.9834H287.243ZM287.243 27.6251H295.711C295.491 26.5418 294.941 25.6751 294.172 25.1334C293.402 24.5918 292.522 24.2668 291.532 24.2668C290.433 24.2668 289.443 24.5918 288.673 25.1334C287.903 25.6751 287.463 26.5418 287.243 27.6251Z" fill="#0E0E0E"/>
<path d="M276.685 23.7251C277.125 22.6417 277.785 21.7751 278.775 21.2334C279.765 20.6917 280.864 20.3667 282.074 20.3667V25.3501C280.644 25.2417 279.435 25.4584 278.335 26.2167C277.235 26.9751 276.685 28.0584 276.685 29.7917V37.9167H272.067V20.6917H276.685V23.7251Z" fill="#0E0E0E"/>
</g>
<defs>
<clipPath id="clip0_5_896">
<rect width="300" height="52" fill="white"/>
</clipPath>
</defs>
</svg>
