<svg width="44" height="44" viewBox="0 0 44 44" fill="none" xmlns="http://www.w3.org/2000/svg">
<path d="M23.8333 12.8333C23.8333 16.8834 20.55 20.1667 16.5 20.1667C12.4499 20.1667 9.16663 16.8834 9.16663 12.8333C9.16663 8.78324 12.4499 5.5 16.5 5.5C20.55 5.5 23.8333 8.78324 23.8333 12.8333Z" stroke="#2560D2" stroke-width="3"/>
<path d="M27.5 20.1667C31.55 20.1667 34.8333 16.8834 34.8333 12.8333C34.8333 8.78324 31.55 5.5 27.5 5.5" stroke="#2560D2" stroke-width="3" stroke-linecap="round" stroke-linejoin="round"/>
<path d="M20.1666 25.6667H12.8333C7.77069 25.6667 3.66663 29.7708 3.66663 34.8334C3.66663 36.8585 5.30825 38.5 7.33329 38.5H25.6666C27.6917 38.5 29.3333 36.8585 29.3333 34.8334C29.3333 29.7708 25.2292 25.6667 20.1666 25.6667Z" stroke="#2560D2" stroke-width="3" stroke-linejoin="round"/>
<path d="M31.1666 25.6667C36.2292 25.6667 40.3333 29.7708 40.3333 34.8334C40.3333 36.8585 38.6917 38.5 36.6666 38.5H33.9166" stroke="#2560D2" stroke-width="3" stroke-linecap="round" stroke-linejoin="round"/>
</svg>
