<svg width="44" height="44" viewBox="0 0 44 44" fill="none" xmlns="http://www.w3.org/2000/svg">
<path d="M29.3333 3.66663V11M14.6666 3.66663V11" stroke="#2560D2" stroke-width="3" stroke-linecap="round" stroke-linejoin="round"/>
<path d="M22 40.3334H20.1667C13.2527 40.3334 9.79577 40.3334 7.64788 38.1854C5.5 36.0377 5.5 32.5806 5.5 25.6667V22C5.5 15.0861 5.5 11.6291 7.64788 9.48125C9.79577 7.33337 13.2527 7.33337 20.1667 7.33337H23.8333C30.7472 7.33337 34.2043 7.33337 36.3521 9.48125C38.5 11.6291 38.5 15.0861 38.5 22V22.9167" stroke="#2560D2" stroke-width="3" stroke-linecap="round" stroke-linejoin="round"/>
<path d="M5.5 18.3334H38.5" stroke="#2560D2" stroke-width="3" stroke-linecap="round" stroke-linejoin="round"/>
<path d="M31.1667 40.3333C31.1667 40.3333 38.5 36.9364 38.5 31.4213C38.5 29.2556 36.9562 27.5 34.8334 27.5C33.0965 27.5 31.9387 28.255 31.1667 29.7647C30.3947 28.255 29.2369 27.5 27.5 27.5C25.3772 27.5 23.8334 29.2556 23.8334 31.4213C23.8334 36.9364 31.1667 40.3333 31.1667 40.3333Z" stroke="#2560D2" stroke-width="3" stroke-linecap="round" stroke-linejoin="round"/>
</svg>
