<svg width="85" height="84" viewBox="0 0 85 84" fill="none" xmlns="http://www.w3.org/2000/svg">
<rect x="0.5" width="84" height="84" rx="42" fill="#63D759" fill-opacity="0.2"/>
<path d="M33.1722 32.5361L38.5659 35.7251C41.7104 37.5843 42.9673 37.5843 46.1119 35.7251L51.5055 32.5361" stroke="#67CD37" stroke-width="3" stroke-linecap="round" stroke-linejoin="round"/>
<path d="M47.8388 51.7861C47.8388 51.7861 48.7555 51.7861 49.6722 53.6194C49.6722 53.6194 52.5839 49.0361 55.1722 48.1194" stroke="#67CD37" stroke-width="3" stroke-linecap="round" stroke-linejoin="round"/>
<path d="M60.8333 38.905L60.758 31.8036C60.7376 29.0986 59.2772 23.6887 53.5988 23.6887H31.693C29.1842 23.5042 24.1667 24.3032 24.1667 33.0943V46.1276C24.1667 48.3654 24.6659 51.3776 27.1198 53.1935C28.7056 54.367 30.7871 54.4757 32.7543 54.5731L36.8738 54.7769" stroke="#67CD37" stroke-width="3" stroke-linecap="round" stroke-linejoin="round"/>
<path d="M60.7983 51.0911C60.7983 56.1949 56.6801 60.3324 51.5999 60.3324C46.5198 60.3324 42.4016 56.1949 42.4016 51.0911C42.4016 45.9871 46.5198 41.8496 51.5999 41.8496C56.6801 41.8496 60.7983 45.9871 60.7983 51.0911Z" stroke="#67CD37" stroke-width="3" stroke-linecap="round"/>
</svg>
